<svg width="40" height="31" viewBox="0 0 40 31" fill="none" xmlns="http://www.w3.org/2000/svg">
<path d="M4.50011 30.8584C3.47986 30.8584 2.6163 30.505 1.90943 29.7981C1.20256 29.0912 0.849121 28.2277 0.849121 27.2074V4.21495C0.849121 3.1947 1.20256 2.33114 1.90943 1.62427C2.6163 0.9174 3.47986 0.563965 4.50011 0.563965H35.5711C36.5913 0.563965 37.4549 0.9174 38.1618 1.62427C38.8686 2.33114 39.2221 3.1947 39.2221 4.21495V27.2074C39.2221 28.2277 38.8686 29.0912 38.1618 29.7981C37.4549 30.505 36.5913 30.8584 35.5711 30.8584H4.50011ZM20.0356 16.8376L3.87856 6.50622V27.2074C3.87856 27.3888 3.9368 27.5378 4.05326 27.6543C4.16973 27.7707 4.31868 27.829 4.50011 27.829H35.5711C35.7525 27.829 35.9015 27.7707 36.0179 27.6543C36.1344 27.5378 36.1926 27.3888 36.1926 27.2074V6.50622L20.0356 16.8376ZM20.0356 13.6916L35.8821 3.59341H4.18908L20.0356 13.6916ZM3.87856 6.50622V3.59341V27.2074C3.87856 27.3888 3.9368 27.5378 4.05326 27.6543C4.16973 27.7707 4.31868 27.829 4.50011 27.829H3.87856V6.50622Z" fill="#3D3D3D"/>
</svg>
