<svg width="33" height="33" viewBox="0 0 33 33" fill="none" xmlns="http://www.w3.org/2000/svg">
<path d="M30.0948 16.224C29.9831 12.5548 28.6304 9.43943 26.0368 6.87787C23.4431 4.31599 20.289 2.97988 16.5746 2.86957V0C18.8342 0.0491014 20.9496 0.506478 22.9209 1.37213C24.8926 2.2381 26.6147 3.3982 28.0873 4.85244C29.5596 6.30699 30.734 8.00784 31.6104 9.955C32.4871 11.9025 32.9503 13.9922 33 16.224H30.0948ZM22.3477 16.224C22.236 14.6911 21.6338 13.3819 20.5411 12.2966C19.4484 11.2115 18.1263 10.6199 16.5746 10.5217V7.65217C18.931 7.75038 20.9385 8.62161 22.597 10.2659C24.2559 11.9104 25.1412 13.8965 25.2528 16.224H22.3477ZM30.8729 33C27.223 33 23.5562 32.1618 19.8724 30.4853C16.189 28.8088 12.8015 26.444 9.7101 23.3908C6.63125 20.3372 4.24319 16.9942 2.54591 13.3617C0.848637 9.72942 0 6.11074 0 2.50561C0 1.9317 0.193679 1.45025 0.581037 1.06126C0.968395 0.672594 1.45259 0.478261 2.03363 0.478261H8.35047C8.83951 0.478261 9.27093 0.635928 9.64473 0.951262C10.0185 1.26628 10.2563 1.65558 10.358 2.11917L11.4682 7.74783C11.545 8.27009 11.5289 8.71886 11.4198 9.09413C11.3104 9.46941 11.1141 9.78458 10.831 10.0397L6.358 14.3407C7.07784 15.6428 7.90033 16.8746 8.82547 18.0362C9.75029 19.1974 10.7516 20.3065 11.8294 21.3634C12.8921 22.4134 14.0219 23.3884 15.2188 24.2885C16.4158 25.1886 17.7082 26.0262 19.0963 26.8013L23.4424 22.4711C23.7455 22.1596 24.1126 21.9412 24.5435 21.8159C24.9741 21.6909 25.4217 21.6603 25.8862 21.724L31.2642 22.8059C31.7532 22.9334 32.1523 23.1799 32.4616 23.5453C32.7708 23.9107 32.9254 24.3251 32.9254 24.7887V30.9913C32.9254 31.5652 32.7287 32.0435 32.3352 32.4261C31.9414 32.8087 31.454 33 30.8729 33ZM4.98336 11.6256L8.44005 8.35857C8.50203 8.30946 8.54238 8.24203 8.5611 8.15626C8.57982 8.07049 8.57675 7.99078 8.5519 7.91713L7.70988 3.64196C7.68502 3.54407 7.64161 3.47058 7.57963 3.42148C7.51765 3.37238 7.43695 3.34783 7.33753 3.34783H3.1957C3.12114 3.34783 3.059 3.37238 3.00929 3.42148C2.9599 3.47058 2.93521 3.53196 2.93521 3.60561C3.0343 4.91286 3.2509 6.24083 3.585 7.58952C3.91877 8.93854 4.38489 10.2839 4.98336 11.6256ZM21.8334 28.1586C23.1172 28.7497 24.4562 29.2017 25.8503 29.5144C27.2448 29.8269 28.5478 30.0126 29.7593 30.0716C29.8338 30.0716 29.896 30.0471 29.9457 29.998C29.9954 29.9489 30.0203 29.8875 30.0203 29.8138V25.7893C30.0203 25.6911 29.9954 25.6113 29.9457 25.5501C29.896 25.4889 29.8216 25.446 29.7225 25.4215L25.6552 24.6046C25.5806 24.5801 25.5154 24.577 25.4596 24.5955C25.4037 24.614 25.3447 24.6539 25.2824 24.7151L21.8334 28.1586Z" fill="white"/>
</svg>
